HIERARCHY
ROOT Hips
{
  OFFSET 0 0 0
  CHANNELS 6 Xposition Yposition Zposition Zrotation Xrotation Yrotation
  JOINT Spine
  {
    OFFSET 0 10.1816 0.131521
    CHANNELS 3 Zrotation Xrotation Yrotation
    JOINT Spine1
    {
      OFFSET 0 10.0835 -1.0008
      CHANNELS 3 Zrotation Xrotation Yrotation
      JOINT Spine2
      {
        OFFSET 0 9.10001 -1.37342
        CHANNELS 3 Zrotation Xrotation Yrotation
        JOINT Neck
        {
          OFFSET 0 16.6717 -2.51617
          CHANNELS 3 Zrotation Xrotation Yrotation
          JOINT Head
          {
            OFFSET 0 9.61788 1.68501
            CHANNELS 3 Zrotation Xrotation Yrotation
            End Site
            {
              OFFSET 0 0 0
            }
          }
        }
        JOINT LeftShoulder
        {
          OFFSET 4.57045 10.946 -2.62799
          CHANNELS 3 Zrotation Xrotation Yrotation
          JOINT LeftArm
          {
            OFFSET 10.5924 -0.524583 -2.23212
            CHANNELS 3 Zrotation Xrotation Yrotation
            JOINT LeftForeArm
            {
              OFFSET 27.8415 -8.94286e-05 3.74589e-05
              CHANNELS 3 Zrotation Xrotation Yrotation
              JOINT LeftHand
              {
                OFFSET 28.3288 -1.74407e-05 3.78045e-05
                CHANNELS 3 Zrotation Xrotation Yrotation
                End Site
                {
                  OFFSET 0 0 0
                }
              }
            }
          }
        }
        JOINT RightShoulder
        {
          OFFSET -4.56997 10.9462 -2.62802
          CHANNELS 3 Zrotation Xrotation Yrotation
          JOINT RightArm
          {
            OFFSET -10.5928 -0.524798 -2.2321
            CHANNELS 3 Zrotation Xrotation Yrotation
            JOINT RightForeArm
            {
              OFFSET -27.8415 -3.30792e-05 1.16763e-05
              CHANNELS 3 Zrotation Xrotation Yrotation
              JOINT RightHand
              {
                OFFSET -28.3288 0 5.5816e-05
                CHANNELS 3 Zrotation Xrotation Yrotation
                End Site
                {
                  OFFSET 0 0 0
                }
              }
            }
          }
        }
      }
    }
  }
  JOINT LeftUpLeg
  {
    OFFSET 8.20778 -6.75171 -1.59956
    CHANNELS 3 Zrotation Xrotation Yrotation
    JOINT LeftLeg
    {
      OFFSET 0 -44.3705 0.284643
      CHANNELS 3 Zrotation Xrotation Yrotation
      JOINT LeftFoot
      {
        OFFSET 0 -44.4279 -2.98219
        CHANNELS 3 Zrotation Xrotation Yrotation
        JOINT LeftToeBase
        {
          OFFSET 0 -8.72867 10.7106
          CHANNELS 3 Zrotation Xrotation Yrotation
          End Site
          {
            OFFSET 0 0 0
          }
        }
      }
    }
  }
  JOINT RightUpLeg
  {
    OFFSET -8.2078 -6.75166 -1.59956
    CHANNELS 3 Zrotation Xrotation Yrotation
    JOINT RightLeg
    {
      OFFSET 0 -44.3705 0.286156
      CHANNELS 3 Zrotation Xrotation Yrotation
      JOINT RightFoot
      {
        OFFSET 0 -44.4277 -2.98379
        CHANNELS 3 Zrotation Xrotation Yrotation
        JOINT RightToeBase
        {
          OFFSET 0 -8.72867 10.7106
          CHANNELS 3 Zrotation Xrotation Yrotation
          End Site
          {
            OFFSET 0 0 0
          }
        }
      }
    }
  }
}
MOTION
Frames:	8
Frame Time:	0.0333333
-1.06217 88.2488 0.621511 0.0522655 -5.45319 -46.3231 -1.95703 9.24296 7.55271 -0.91615 2.17162 1.02474 -0.894672 2.18723 1.01704 4.41899 1.12137 13.174 -3.91066 7.47952 20.6962 -8.61707 0.572556 3.67365 -67.9227 -32.7083 -45.2099 -0.000257546 1.28924e-05 -106.358 -15.7588 4.04096 -6.87556 -5.23542 1.81436 13.2489 64.7892 12.3416 53.0667 -1.46686e-05 -4.20284e-06 105.988 8.39647 -5.59457 18.5713 18.4134 -27.9211 17.8668 8.07762 58.2063 -13.1879 -14.4915 -21.5772 -13.9736 2.80619e-06 -1.59403 -2.41444e-05 -28.3981 -17.7176 -21.5917 -14.3759 57.9434 2.41621 22.3176 -24.8542 3.83743 3.2171e-06 -0.0129987 1.34715e-05 
-3.67537 88.1737 1.58831 -1.1468 -5.91233 -47.9847 -2.54309 9.30777 7.62049 -1.75351 2.36432 1.165 -1.73201 2.388 1.18188 4.7509 1.39801 13.1676 -3.39786 7.29791 21.3014 -7.89001 0.595429 3.22505 -67.819 -34.1201 -44.2561 -0.000271795 2.27167e-05 -104.367 -16.5048 3.74032 -7.23417 -5.85458 1.63849 12.8177 65.8686 13.263 51.3802 2.94269e-05 9.93303e-06 102.532 8.87764 -5.35808 21.4137 18.6664 -24.172 17.9195 11.083 57.4468 -15.8322 -16.6196 -23.6365 -13.78 2.40681e-06 -2.69729 9.72703e-06 -30.2745 -17.0889 -22.9058 -13.4853 61.3283 1.77197 20.92 -19.3452 9.06604 0.72799 -6.37289 0.075481 
-6.25101 88.5749 2.39742 -1.64009 -6.09744 -49.1997 -3.15059 9.21868 7.53069 -2.53407 2.34122 0.956315 -2.52884 2.36588 0.999807 4.71902 1.83518 13.2787 -3.47975 7.52463 22.001 -8.41751 0.997194 2.03696 -66.5368 -36.7807 -43.5137 -0.000245429 -1.07825e-05 -103.624 -16.4936 2.92269 -7.00119 -7.00404 1.30679 12.2051 66.8179 14.0955 50.5435 2.01792e-07 -2.47335e-06 99.3284 9.67565 -4.93222 24.2563 19.6935 -20.3552 19.3055 11.2166 55.3191 -16.0296 -17.9918 -24.1665 -14.9435 -1.30306e-06 -2.90749 2.41436e-05 -33.2723 -17.8888 -24.8613 -13.4711 64.6987 2.15917 16.41 -11.3106 15.4352 1.44063 -12.9322 0.30222 
-8.77067 89.2619 2.8235 -1.62521 -5.90498 -49.34 -3.5016 9.11645 7.26407 -2.92771 2.22607 0.386683 -2.94788 2.24319 0.448181 4.40889 2.35149 13.4303 -4.12465 7.71463 22.5526 -10.0151 1.69843 0.468837 -65.1865 -40.137 -44.2814 -0.000275603 -7.53448e-06 -104.294 -16.1408 1.93843 -6.17159 -8.3273 0.91085 11.7617 67.0797 13.8183 51.5822 6.11439e-05 -1.81818e-06 96.8434 10.5357 -4.39465 26.6887 20.9305 -17.2106 20.8168 10.4183 52.1223 -15.3815 -19.2005 -23.323 -16.8372 -3.43437e-07 -3.51294 2.44372e-06 -36.1436 -19.9089 -26.8196 -15.4049 67.5057 4.28264 10.4576 -4.63117 21.0581 0.877563 -14.232 0.20827 
-11.2742 90.1393 2.96834 -1.40533 -5.4991 -48.3392 -3.33901 9.04308 6.87906 -2.85654 2.12504 -0.345937 -2.90715 2.12795 -0.273071 4.07225 2.83181 13.5172 -4.86346 7.4558 22.7673 -12.1911 2.57833 -1.15985 -64.7425 -43.5334 -47.3988 -0.000185392 -1.6549e-05 -105.732 -15.9188 0.864223 -4.97896 -9.67551 0.49156 11.5106 66.9954 12.1991 54.4644 -1.50779e-05 -4.06526e-06 95.095 11.2705 -3.94491 28.732 21.8232 -14.6659 21.6818 9.88344 47.9387 -15.0353 -20.4549 -21.5687 -18.5361 -2.55758e-06 -4.39349 -7.45782e-06 -38.21 -22.616 -28.2152 -19.9483 68.8321 8.82244 6.41229 -0.52026 23.2749 -5.31425e-06 -8.98487 8.11373e-06 
-13.8584 90.8943 2.86326 -0.996522 -5.05987 -46.6758 -2.93758 8.97998 6.50913 -2.48415 2.05478 -1.03187 -2.56281 2.0444 -0.953569 3.88928 3.155 13.5041 -5.27967 6.84612 22.6457 -14.2517 3.45759 -2.62845 -65.3651 -46.1153 -52.092 -0.000214299 -4.49007e-06 -107.113 -15.7339 -0.193578 -3.88099 -10.8288 0.150514 11.2099 67.0419 9.97024 58.3904 1.56126e-05 -1.08927e-05 93.7209 11.9923 -3.99264 30.6515 22.3479 -12.6338 21.9779 9.81244 43.3047 -15.1793 -21.9264 -19.5011 -19.7659 -4.93369e-09 -5.31179 4.79099e-06 -39.3512 -25.5385 -28.6357 -25.1784 68.1589 13.8723 5.65758 -0.0013518 19.2568 -1.06353e-06 0.224087 1.28818e-06 
-16.4632 91.6091 2.87164 -0.656214 -4.57533 -44.7723 -2.08596 8.83856 6.14458 -1.87274 1.90823 -1.59972 -1.97793 1.88392 -1.50703 3.88492 3.21554 13.432 -5.31598 6.14631 22.3541 -15.4675 4.06659 -3.66178 -66.3626 -46.9374 -56.1635 -0.000212127 9.4368e-06 -108.013 -15.1061 -0.651856 -3.20802 -11.3759 0.062405 10.6126 67.0899 8.13214 62.4511 0.000274512 6.68924e-06 92.5126 12.9024 -4.6756 32.6528 22.7643 -10.5559 22.0933 9.8298 38.2198 -15.038 -23.5521 -17.0221 -21.0998 1.452e-06 -5.54238 -1.21724e-05 -40.3162 -27.1657 -27.9783 -23.5844 65.0493 13.1198 4.65352 -3.08943 8.75522 2.66005e-06 2.08178 -1.14469e-05 
-19.2742 91.7459 2.7562 -0.149344 -4.20931 -43.0517 -1.44353 8.68541 5.83309 -1.31818 1.73462 -2.03856 -1.44198 1.70393 -1.94011 4.00295 2.97551 13.3482 -5.10925 5.37373 22.0281 -15.5418 4.25436 -4.14983 -66.8151 -45.8894 -57.6319 -0.000183105 -2.20437e-15 -108.31 -14.0135 -0.043746 -3.01505 -11.2639 0.255529 9.60337 67.0302 7.31906 65.634 -3.05423e-05 1.73875e-06 91.6324 13.9301 -5.45072 34.6399 23.3936 -8.78664 22.3467 9.84896 33.8847 -14.9857 -25.3897 -14.9184 -22.4374 -1.70443e-06 -4.72254 -1.94436e-05 -41.3304 -27.8797 -27.1153 -19.428 59.7819 11.4019 0.263413 -7.77294 -5.3246 -3.84715e-06 1.68643 1.00912e-05 
